<?xml version="1.0" encoding="UTF-8"?>
<svg id="olguin" xmlns="http://www.w3.org/2000/svg" viewBox="0 0 375.559 316.334">
  <path d="m36.003,52.205c-1.44-2.809-2.088-6.337-2.088-10.153,0-14.905,9.937-34.274,18.793-34.274,3.097,0,4.537,2.664,4.537,6.912,0,9.289-6.625,25.994-16.634,39.315,1.08,1.225,2.521,2.232,4.177,2.952.288.145.359.433.359.648,0,.359-.359.72-.936.72-.145,0-.36,0-.576-.072-1.8-.432-3.312-1.224-4.608-2.304-8.137,10.225-18.434,18.001-29.162,18.001-6.913,0-9.865-4.608-9.865-11.448C0,41.764,27.29,0,56.381,0c3.601,0,4.824,1.152,4.824,2.521,0,2.16-3.024,4.969-4.752,4.969-.145,0,.071-3.745-3.312-3.745C30.675,3.744,5.04,46.156,5.04,64.229c0,4.896,1.944,7.993,6.265,7.993,7.777,0,16.922-8.929,24.698-20.018Zm15.697-41.836c-6.192,0-15.193,17.065-15.193,30.891,0,2.952.433,5.761,1.368,8.209,9.001-13.537,15.77-29.379,15.77-36.003,0-1.944-.576-3.097-1.944-3.097Z"/>
  <path d="m43.056,65.382c0-14.905,43.275-63.077,49.756-63.077,2.305,0,3.385.936,3.385,2.592,0,7.849-23.114,31.323-40.323,44.716-3.816,6.625-6.337,12.313-6.337,15.266,0,1.44.576,2.304,1.944,2.304,2.088,0,6.265-3.815,12.601-11.377,0,0,.576.217.576.721,0,.144,0,.288-.144.504-6.913,8.856-12.89,12.745-16.562,12.745-3.385,0-4.896-1.656-4.896-4.393Zm14.689-18.865c14.329-11.449,34.707-34.491,34.707-39.027,0-.504-.288-.792-.792-.792-5.329,0-23.187,22.321-33.915,39.819Z"/>
  <path d="m52.198,84.392c-1.584,0-3.096-.504-3.096-.864,0-.216.432-.36,1.439-.432,10.081-.576,26.57-22.178,26.499-22.898,0-.216-.145-.359-.36-.359-.144,0-.288.071-.576.359-1.8,1.801-10.657,9.793-16.346,9.793-2.664,0-3.816-1.296-3.816-3.456,0-8.713,19.37-30.675,38.235-30.675,2.521,0,3.385.937,3.385,2.017,0,1.655-2.017,3.744-3.097,3.744-.144,0,.072-3.744-3.312-3.744-12.674,0-28.155,19.729-28.155,24.77,0,.721.36,1.152,1.08,1.152,5.761,0,15.554-9.145,18.866-12.602,1.224-1.296,3.096-3.6,4.032-4.608.648-.647,2.305-.863,3.168-.863,1.297,0,2.521.216,2.521.792,0,.144-.072.216-.144.359-4.753,6.265-22.395,37.516-40.324,37.516Z"/>
  <path d="m105.768,58.901c-.144,0-.288.144-.288.144-1.872,1.873-9.648,9.722-15.337,9.722-2.664,0-3.744-1.08-3.744-2.881,0-5.04,8.496-15.697,15.265-23.834,2.448-2.592,3.673-3.672,4.537-3.816.359-.071,1.008-.144,1.655-.144,1.009,0,2.017.216,2.017.792,0,.216-.144.36-.144.36-7.849,7.344-15.985,19.657-15.985,23.113,0,.576.287.937.792.937,4.824,0,10.801-5.833,14.688-10.153,2.593-3.744,5.688-7.633,8.929-11.305,2.377-2.664,3.673-3.528,4.537-3.816.432-.144,1.152-.216,1.872-.216.864,0,1.728.144,1.728.72,0,.145-.071.216-.144.36-7.993,7.416-16.489,19.657-16.489,25.49,0,1.872.576,2.808,1.584,2.808,2.088,0,6.265-3.815,12.602-11.377,0,0,.575.217.575.721,0,.144,0,.288-.144.504-7.057,9.001-13.321,13.033-17.065,13.033-2.305,0-3.673-1.44-3.673-4.248,0-1.801.792-4.177,2.232-6.913Z"/>
  <path d="m133.703,40.468c1.728-1.656,2.016-1.656,4.032-1.656,1.296,0,2.088.216,2.088.792,0,.145-.072.216-.144.36-4.537,5.688-14.978,18.722-14.978,24.41,0,1.872.576,2.808,1.584,2.808,2.088,0,6.265-3.815,12.601-11.377,0,0,.576.217.576.721,0,.144,0,.288-.144.504-7.057,9.072-13.465,13.105-17.281,13.105-2.305,0-3.745-1.513-3.745-4.249,0-6.192,10.873-20.882,15.41-25.418Zm11.017-16.777c2.521,0,4.248,1.8,4.248,4.104,0,3.384-3.168,6.336-6.48,6.336-2.521,0-4.176-1.728-4.176-4.104,0-3.385,3.168-6.337,6.408-6.337Z"/>
  <path d="m149.398,40.756c1.08-1.225,1.584-1.225,3.24-1.225,1.152,0,2.376.145,2.376.793,0,.144-.072.216-.144.359,0,0-6.625,8.569-11.953,17.354,5.04-5.112,21.458-20.449,27.435-20.449.432,0,.576.216.576.504,0,.359-.217.864-.36.936-5.545,3.889-15.842,19.442-15.842,25.347,0,1.872.576,2.808,1.584,2.808,2.089,0,6.265-3.815,12.602-11.377,0,0,.576.217.576.721,0,.144,0,.288-.145.504-6.912,8.856-12.889,12.745-16.562,12.745-2.304,0-4.392-.72-4.392-3.601,0-5.473,7.92-16.201,13.465-22.034,0-.216-.144-.216-.288-.216-1.872,0-19.441,17.138-22.826,20.666-1.439,1.296-3.744,4.393-5.977,4.393-1.439,0-2.376-.937-2.376-2.593l19.01-25.634Z"/>
</svg>